<?xml version="1.0" encoding="iso-8859-1"?>
<!-- Generator: Adobe Illustrator 18.1.1, SVG Export Plug-In . SVG Version: 6.00 Build 0)  -->
<svg version="1.1" id="Capa_1" xmlns="http://www.w3.org/2000/svg" xmlns:xlink="http://www.w3.org/1999/xlink" x="0px" y="0px"
	 viewBox="0 0 347.182 347.182" style="enable-background:new 0 0 347.182 347.182;" xml:space="preserve">
<g>
	<g>
		<path style="fill:#010002;" d="M340.664,107.589V0H233.081v42.741h34.638l-47.813,47.801
			c-22.125-13.933-48.117-21.505-74.449-21.505c-37.156,0-72.038,14.434-98.245,40.64c-54.263,54.263-54.257,142.549,0,196.811
			c26.242,26.242,61.202,40.688,98.412,40.694c37.203,0,72.163-14.452,98.412-40.694c26.242-26.248,40.706-61.208,40.706-98.412
			c0-33.086-11.433-64.388-32.49-89.431l45.682-45.682v34.626H340.664z M145.625,304.46c-25.795,0-50.002-10.012-68.189-28.193
			c-37.585-37.597-37.585-98.77,0-136.367c18.181-18.175,42.395-28.199,68.189-28.193c25.795,0,50.014,10.018,68.189,28.193
			c37.591,37.597,37.591,98.77,0,136.367C195.621,294.447,171.414,304.46,145.625,304.46z"/>
	</g>
</g>
<g>
</g>
<g>
</g>
<g>
</g>
<g>
</g>
<g>
</g>
<g>
</g>
<g>
</g>
<g>
</g>
<g>
</g>
<g>
</g>
<g>
</g>
<g>
</g>
<g>
</g>
<g>
</g>
<g>
</g>
</svg>
